HIERARCHY
ROOT Hips
{
  OFFSET -35.4901 99.2528 17.4586
  CHANNELS 6 Xposition Yposition Zposition Zrotation Xrotation Yrotation
  JOINT LeftUpLeg
  {
    OFFSET 8.64259 1.95398 -2.38835
    CHANNELS 3 Zrotation Xrotation Yrotation
    JOINT LeftLeg
    {
      OFFSET 43.7702 0 0
      CHANNELS 3 Zrotation Xrotation Yrotation
      JOINT LeftFoot
      {
        OFFSET 40.6238 0 0
        CHANNELS 3 Zrotation Xrotation Yrotation
        JOINT LeftToeBase
        {
          OFFSET 12.7242 0 0
          CHANNELS 3 Zrotation Xrotation Yrotation
          End Site
          {
            OFFSET 0 0 0
          }
        }
      }
    }
  }
  JOINT RightUpLeg
  {
    OFFSET -8.2249 1.95398 -2.59336
    CHANNELS 3 Zrotation Xrotation Yrotation
    JOINT RightLeg
    {
      OFFSET 43.5653 0 0
      CHANNELS 3 Zrotation Xrotation Yrotation
      JOINT RightFoot
      {
        OFFSET 40.6238 0 0
        CHANNELS 3 Zrotation Xrotation Yrotation
        JOINT RightToeBase
        {
          OFFSET 12.7242 0 0
          CHANNELS 3 Zrotation Xrotation Yrotation
          End Site
          {
            OFFSET 0 0 0
          }
        }
      }
    }
  }
  JOINT Spine
  {
    OFFSET 0.165834 0.87714 6.61349
    CHANNELS 3 Zrotation Xrotation Yrotation
    JOINT Spine1
    {
      OFFSET 7.38963 1.71661e-005 0
      CHANNELS 3 Zrotation Xrotation Yrotation
      JOINT Spine2
      {
        OFFSET 11.9445 1.14441e-005 0
        CHANNELS 3 Zrotation Xrotation Yrotation
        JOINT Spine3
        {
          OFFSET 14.7254 4.19617e-005 0
          CHANNELS 3 Zrotation Xrotation Yrotation
          JOINT Spine4
          {
            OFFSET 10.9679 0 0
            CHANNELS 3 Zrotation Xrotation Yrotation
            JOINT RightShoulder
            {
              OFFSET 2.46616 -1.6653 3.69651
              CHANNELS 3 Zrotation Xrotation Yrotation
              JOINT RightArm
              {
                OFFSET 13.0012 0 0
                CHANNELS 3 Zrotation Xrotation Yrotation
                JOINT RightForeArm
                {
                  OFFSET 28.7848 1.52588e-005 0
                  CHANNELS 3 Zrotation Xrotation Yrotation
                  JOINT RightHand
                  {
                    OFFSET 26.5688 1.52588e-005 0
                    CHANNELS 3 Zrotation Xrotation Yrotation
                    End Site
                    {
                      OFFSET 0 0 0
                    }
                  }
                }
              }
            }
            JOINT LeftShoulder
            {
              OFFSET 2.38034 -1.29275 -3.7523
              CHANNELS 3 Zrotation Xrotation Yrotation
              JOINT LeftArm
              {
                OFFSET 16.3182 6.10351e-005 0
                CHANNELS 3 Zrotation Xrotation Yrotation
                JOINT LeftForeArm
                {
                  OFFSET 27.0901 0 0
                  CHANNELS 3 Zrotation Xrotation Yrotation
                  JOINT LeftHand
                  {
                    OFFSET 24.5451 1.52588e-005 0
                    CHANNELS 3 Zrotation Xrotation Yrotation
                    End Site
                    {
                      OFFSET 0 0 0
                    }
                  }
                }
              }
            }
            JOINT Neck
            {
              OFFSET 5.0226 -0.0266342 0
              CHANNELS 3 Zrotation Xrotation Yrotation
              JOINT Head
              {
                OFFSET 6.69364 2.86102e-005 0
                CHANNELS 3 Zrotation Xrotation Yrotation
                End Site
                {
                  OFFSET 0 0 0
                }
              }
            }
          }
        }
      }
    }
  }
}
MOTION
Frames:	7
Frame Time:	0.0416667
-290.365 90.253 298.369 103.369 38.6941 87.0293 -167.561 -16.0762 101.551 -42.0717 15.5769 3.11554 66.9741 3.83666 1.59939 27.6822 4.50224 -7.32343 175.682 16.94 97.0738 -31.4974 -8.42205 0.367595 65.8782 -2.62873 2.73307 17.3291 0.800731 -0.296147 -0.417657 7.81143 -90.6511 11.2439 -1.13416 -1.18432 -0.427099 -1.18516 -1.13327 -22.9598 -0.725832 -1.47039 -2.9472 -0.725832 -1.47039 92.0043 -29.0818 -103.067 45.5435 1.93204 8.06014 7.34368 -9.80374 -4.79101 -22.7906 0.316116 -7.96575 -83.6901 -50.2752 88.2478 -21.1956 11.2078 -25.5824 5.84056 15.5568 -10.9855 -5.96404 0.189558 -13.2852 0.211532 1.61393 -3.1443 -7.05286 1.99457 1.12733 
-283.39 91.1395 293.419 105.743 36.4428 86.116 -166.48 -4.18632 103.505 -60.4558 14.9588 3.12041 56.9745 -0.163663 0.833939 9.60824 1.62389 -0.410219 175.935 9.48126 97.7594 -32.9849 -13.0962 0.0020212 71.0688 -5.11076 -3.00168 20.2859 0.0735552 0.88409 0.125417 8.12982 -90.6332 10.6119 -0.0414972 -1.25549 -1.05957 -0.0966956 -1.25246 -23.5904 0.337737 -1.20994 -3.5777 0.337734 -1.20994 91.8602 -29.2714 -103.295 44.6097 -0.281446 5.05495 6.77201 -12.4065 -7.92067 -22.4857 0.551815 -9.61155 -83.1623 -50.0646 89.0225 -24.6043 11.0554 -17.9478 5.91142 16.5948 -10.1852 0.556325 -0.204088 -7.90151 3.15113 0.827856 -2.83094 -6.96861 1.20896 1.9639 
-278.521 91.9826 289.588 103.793 41.0461 85.7035 -171.172 12.796 97.0464 -68.4033 11.4021 4.25134 68.4194 4.86635 1.39556 11.5643 3.15882 -2.58395 174.508 6.25805 95.7894 -31.4415 -8.48796 0.111504 76.243 -6.38995 0.40686 18.5702 -0.042168 1.30443 0.218422 7.99835 -90.4844 10.8785 0.211011 -0.98283 -0.792818 0.167557 -0.991163 -23.3254 0.496623 -0.873994 -3.31275 0.496628 -0.873991 91.6972 -29.7121 -103.474 41.8659 -3.79549 1.1959 5.50153 -18.4076 -11.8354 -23.4233 0.334686 -9.02872 -83.1127 -49.7439 89.0665 -26.2902 11.592 -11.7913 4.62774 17.4343 -7.81364 -0.352945 -0.103396 -5.14002 2.11001 -1.25204 -2.59599 -4.66025 -0.893493 2.79521 
-273.099 92.8786 284.038 102.638 40.8947 83.5013 -174.272 20.7196 91.0845 -54.52 1.79823 0.746192 72.1129 6.48639 -0.932715 12.3054 -1.17143 2.69854 172.854 -0.963694 92.1142 -27.8349 -8.94128 -0.854255 80.0944 -7.23815 3.20316 19.2892 0.332073 0.431153 0.748092 8.05509 -90.1221 10.7679 1.43343 -0.375479 -0.902378 1.41551 -0.438211 -23.4439 1.47998 0.0727741 -3.43124 1.47999 0.0727848 91.7364 -29.4472 -103.485 38.2282 -5.60834 -4.21562 4.34959 -19.0981 -14.2944 -25.794 0.291452 -8.51123 -83.2625 -48.3747 88.6998 -28.8456 9.87972 -4.87511 4.42842 13.6614 -7.46106 -0.802919 -0.117933 -6.57629 2.38821 -2.60463 -1.93668 -4.26265 -2.31006 2.65217 
-267.519 92.5479 278.621 102.27 39.0263 81.8694 -176.612 20.17 88.242 -25.3722 -2.20516 -2.25688 62.0244 2.87286 -1.01968 18.15 -1.45463 2.86966 171.403 -5.98483 88.8697 -26.2314 -12.0462 -1.8823 84.3159 -8.94914 3.99015 19.6006 1.65632 -2.4348 1.10064 8.19987 -89.9652 10.4769 2.20836 -0.126679 -1.19219 2.20065 -0.22381 -23.7418 2.14428 0.543195 -3.72915 2.1443 0.5432 91.5957 -27.7887 -104.353 34.2844 -6.47246 -10.5794 2.6075 -21.3891 -18.2553 -25.5479 -0.450768 -5.11525 -82.4011 -50.6117 90.22 -27.7415 6.88724 2.71653 5.97722 13.6521 -10.0418 -2.22059 -0.09183 -5.36215 3.41188 -2.13271 2.35842 -3.93039 -2.51554 0.944875 
-260.799 91.0652 272.238 102.671 37.8743 81.2759 179.814 18.8925 88.1808 -7.34577 -7.69449 -2.45622 61.4088 2.80432 -2.79978 16.4228 -1.28627 2.70174 168.734 -13.774 85.7074 -23.4409 -15.029 -1.84049 87.5427 -10.9143 2.92304 21.3067 1.02202 -1.32717 1.24954 8.32002 -89.9579 10.2368 2.50893 -0.130612 -1.43173 2.50074 -0.24099 -23.9855 2.43212 0.62992 -3.97287 2.43211 0.629913 90.8196 -27.9827 -105.879 28.8511 -6.78101 -15.741 2.45182 -20.1627 -19.0936 -28.0797 -0.0884906 -6.60754 -82.0399 -52.7042 90.9202 -26.8431 4.25297 8.17227 5.25498 8.50783 -8.41694 -1.63089 -0.0981893 -5.56315 3.7858 -1.31725 4.12589 -2.68865 -2.01391 0.616588 
-253.115 89.8625 264.882 102.06 34.8904 81.0123 -178.85 19.9106 87.2391 -12.848 -6.10936 -2.74847 57.1527 0.69645 -2.33749 14.1022 -1.87974 3.54232 164.784 -19.6256 80.1654 -22.3624 -22.0282 -2.36317 85.7063 -11.9354 -0.267869 27.9828 -0.0478019 -0.00676719 1.54675 8.31921 -89.8376 10.2392 3.15603 0.0517461 -1.42795 3.15524 -0.0873573 -23.9915 2.99445 0.998726 -3.97881 2.99445 0.998717 91.0245 -27.4974 -105.64 30.2725 -4.37086 -19.095 -0.140124 -22.7661 -19.8755 -31.5332 -0.403514 -5.58985 -80.6529 -54.2119 93.0376 -25.4411 3.50456 7.84586 3.74803 4.82237 -2.04522 -1.56793 -0.0899173 -4.29819 6.55907 -0.805673 4.56108 -3.83611 -1.68423 0.389571 
